<svg xmlns="http://www.w3.org/2000/svg" width="16" height="16" viewBox="0 0 16 16">
  <g>
    <g>
      <rect x="3.122" y="3.718" width="9.8862" height="6.9577" rx="0.1925" style="fill: #0d2192"/>
      <rect x="3.122" y="3.718" width="3.6569" height="6.9577" style="fill: #fff;opacity: 0.07999999821186066;isolation: isolate"/>
      <rect y="10.2268" width="16" height="1.6699" rx="0.358" style="fill: #0d2192"/>
      <rect y="10.2268" width="4.9504" height="2.0553" style="fill: #fff;opacity: 0.07999999821186066;isolation: isolate"/>
    </g>
    <g>
      <path d="M15.1191,13.4707a.1225.1225,0,0,1,.0635.0693.1482.1482,0,0,1,.0059.0918,2.843,2.843,0,0,1-.6328,1.0811.1588.1588,0,0,1-.08.0459.1343.1343,0,0,1-.0928-.0108L13.9,14.46a2.193,2.193,0,0,1-.7022.4023v.5645a.1481.1481,0,0,1-.0283.0859.13.13,0,0,1-.0752.0518,2.9456,2.9456,0,0,1-1.2656,0,.13.13,0,0,1-.0752-.0518.1488.1488,0,0,1-.0283-.0859v-.5645a2.194,2.194,0,0,1-.7022-.4023l-.4824.288a.1343.1343,0,0,1-.0928.0108.1585.1585,0,0,1-.08-.0459,2.8418,2.8418,0,0,1-.6328-1.0811.1474.1474,0,0,1,.0058-.0918.1225.1225,0,0,1,.0635-.0693l.4824-.2881a2.3685,2.3685,0,0,1,0-.8047L9.8047,12.09a.1222.1222,0,0,1-.0635-.0693.1474.1474,0,0,1-.0058-.0918,2.8414,2.8414,0,0,1,.6328-1.081.1578.1578,0,0,1,.08-.0459.1342.1342,0,0,1,.0928.0107l.4824.2881a2.1924,2.1924,0,0,1,.7022-.4024v-.5644a.1483.1483,0,0,1,.0283-.0859.129.129,0,0,1,.0752-.0518,2.9425,2.9425,0,0,1,1.2656,0,.129.129,0,0,1,.0752.0518.1476.1476,0,0,1,.0283.0859v.5644a2.1913,2.1913,0,0,1,.7022.4024l.4824-.2881a.1343.1343,0,0,1,.0928-.0107.1581.1581,0,0,1,.08.0459,2.8427,2.8427,0,0,1,.6328,1.081.1481.1481,0,0,1-.0059.0918.1222.1222,0,0,1-.0635.0693l-.4824.2881a2.3685,2.3685,0,0,1,0,.8047ZM13.1123,12.13a.9172.9172,0,1,0,.2705.65A.89.89,0,0,0,13.1123,12.13Z" style="fill: #c1c1c1"/>
      <path d="M11.6025,9.3594a.1225.1225,0,0,1,.0635.0693.1482.1482,0,0,1,.0059.0918,2.843,2.843,0,0,1-.6328,1.0811.16.16,0,0,1-.08.0459.1343.1343,0,0,1-.0928-.0108l-.4824-.2881a2.1913,2.1913,0,0,1-.7022.4024v.5644a.1482.1482,0,0,1-.0283.086.1292.1292,0,0,1-.0752.0517,2.9425,2.9425,0,0,1-1.2656,0,.1292.1292,0,0,1-.0752-.0517.1489.1489,0,0,1-.0283-.086V10.751a2.1924,2.1924,0,0,1-.7022-.4024l-.4824.2881a.1343.1343,0,0,1-.0928.0108.1592.1592,0,0,1-.08-.0459,2.8418,2.8418,0,0,1-.6328-1.0811.1474.1474,0,0,1,.0058-.0918.1225.1225,0,0,1,.0635-.0693l.4824-.2881a2.3714,2.3714,0,0,1,0-.8052l-.4824-.2876A.1216.1216,0,0,1,6.2246,7.91a.1494.1494,0,0,1-.0058-.0923,2.8418,2.8418,0,0,1,.6328-1.0811.1678.1678,0,0,1,.08-.0464.132.132,0,0,1,.0928.0118l.4824.2876a2.2125,2.2125,0,0,1,.7022-.4029V6.0229a.15.15,0,0,1,.0283-.0864.1315.1315,0,0,1,.0752-.0517,2.9269,2.9269,0,0,1,1.2656,0,.1315.1315,0,0,1,.0752.0517.15.15,0,0,1,.0283.0864v.5635a2.2114,2.2114,0,0,1,.7022.4029l.4824-.2876A.1321.1321,0,0,1,10.959,6.69a.1681.1681,0,0,1,.08.0464,2.843,2.843,0,0,1,.6328,1.0811.15.15,0,0,1-.0059.0923.1216.1216,0,0,1-.0635.0688l-.4824.2876a2.3714,2.3714,0,0,1,0,.8052ZM9.5957,8.019a.919.919,0,1,0,.2695.65A.8889.8889,0,0,0,9.5957,8.019Z" style="fill: #c1c1c1"/>
    </g>
  </g>
</svg>
